<?xml version="1.0" standalone="no"?>
<!DOCTYPE svg PUBLIC "-//W3C//DTD SVG 20010904//EN"
 "http://www.w3.org/TR/2001/REC-SVG-20010904/DTD/svg10.dtd">
<svg version="1.0" xmlns="http://www.w3.org/2000/svg"
 width="100.000000pt" height="100.000000pt" viewBox="0 0 1.000000 100.000000"
 preserveAspectRatio="xMidYMid meet">

<g transform="translate(0.000000,100.000000) scale(0.100000,-0.100000)"
fill="#000000" stroke="none">
<path d="M393 963 c-3 -8 4 -24 16 -36 13 -13 20 -16 16 -7 -4 13 10 15 102
12 60 -2 111 -9 114 -14 5 -7 16 -7 35 0 20 7 23 11 10 11 -12 1 -16 6 -12 17
3 9 2 12 -5 9 -5 -4 -15 -2 -22 3 -7 5 -65 12 -130 14 -98 5 -120 3 -124 -9z"/>
<path d="M427 893 c-4 -3 0 -14 9 -24 9 -10 14 -27 11 -39 -5 -18 0 -20 38
-20 l44 0 -11 33 c-16 46 -29 62 -39 45 -7 -10 -11 -10 -21 0 -14 14 -22 15
-31 5z"/>
<path d="M407 845 c-4 -8 -2 -17 2 -20 5 -2 11 4 14 15 6 23 -8 27 -16 5z"/>
<path d="M223 792 c-62 -31 -113 -59 -113 -63 0 -10 50 -29 78 -29 15 0 51 16
79 35 29 19 56 35 60 35 4 0 -8 -16 -27 -35 -38 -39 -21 -50 23 -15 34 27 43
25 23 -5 -22 -33 -21 -35 19 -35 22 0 38 6 41 15 9 23 21 18 28 -11 5 -19 0
-35 -19 -59 -14 -19 -25 -38 -25 -44 0 -19 29 -12 42 9 15 24 28 26 28 5 0
-22 50 -20 50 3 1 14 3 14 19 -5 18 -22 51 -32 51 -16 0 4 -12 24 -26 45 -19
27 -25 44 -20 63 7 29 22 33 28 7 4 -15 12 -18 37 -14 32 4 40 19 19 40 -22
22 2 26 25 4 13 -12 32 -22 43 -22 16 1 13 6 -14 31 -48 43 -35 45 26 4 55
-37 80 -42 132 -23 31 10 32 12 14 25 -29 22 -212 113 -227 113 -7 0 -23 -11
-35 -25 -12 -14 -28 -26 -34 -26 -7 -1 -29 -3 -48 -5 -50 -6 -117 14 -123 37
-8 29 -32 23 -154 -39z"/>
<path d="M825 620 c-3 -5 -1 -10 4 -10 6 0 11 5 11 10 0 6 -2 10 -4 10 -3 0
-8 -4 -11 -10z"/>
<path d="M870 605 c-8 -9 -8 -15 -2 -15 12 0 26 19 19 26 -2 2 -10 -2 -17 -11z"/>
<path d="M680 595 c-21 -25 -7 -34 29 -19 19 8 31 17 28 20 -3 3 -15 0 -28 -6
-19 -11 -21 -10 -16 4 8 20 3 20 -13 1z"/>
<path d="M887 585 c-10 -14 -13 -25 -7 -25 6 0 13 7 17 16 5 14 9 13 24 -7 27
-35 24 -75 -6 -95 -33 -22 -62 -10 -80 33 -19 45 -19 73 0 73 8 0 15 5 15 10
0 28 -44 -6 -57 -44 -13 -41 -28 -43 -43 -6 -14 34 -19 36 -46 16 -24 -19 -19
-24 80 -75 110 -57 159 -53 181 17 9 29 -12 90 -35 102 -24 13 -22 14 -43 -15z"/>
<path d="M425 560 c-14 -7 -8 -8 19 -3 34 5 38 4 33 -11 -8 -19 21 -35 32 -18
4 6 12 7 20 3 11 -7 9 -15 -9 -39 -14 -19 -21 -39 -17 -51 6 -23 -3 -27 -20
-10 -17 17 -43 3 -43 -22 0 -14 5 -19 14 -16 8 3 20 0 26 -8 9 -11 16 -12 31
-2 16 10 27 8 64 -12 24 -13 52 -32 61 -42 17 -19 17 -21 -2 -43 -10 -13 -35
-45 -54 -70 -19 -25 -39 -45 -43 -46 -5 0 -6 23 -2 51 6 45 5 52 -14 65 -13 9
-21 26 -21 43 0 24 -6 30 -40 41 -22 7 -47 21 -56 31 -9 10 -22 15 -29 13 -21
-8 -48 41 -40 73 5 23 4 25 -10 13 -8 -7 -13 -15 -11 -17 2 -3 -5 -14 -17 -26
l-22 -22 28 -3 c33 -4 26 -22 -9 -22 -17 0 -24 -5 -24 -20 0 -17 7 -20 48 -21
51 -1 48 -4 -10 -14 -29 -4 -38 -11 -38 -25 0 -17 7 -20 48 -21 51 -1 48 -4
-10 -14 -35 -5 -37 -7 -27 -29 10 -21 17 -23 53 -19 31 3 37 2 26 -6 -8 -6
-26 -11 -39 -11 l-24 0 21 -23 c16 -17 30 -22 52 -19 35 5 42 -15 8 -20 -17
-3 -6 -9 36 -22 61 -19 111 -17 162 6 l27 13 -24 6 c-21 6 -19 7 10 8 19 1 43
9 53 18 18 16 18 17 -4 30 l-23 12 27 1 c35 0 56 34 31 49 -16 9 -16 10 5 11
36 0 28 35 -10 48 l-33 10 33 1 c24 1 32 5 32 20 0 19 -25 31 -67 31 -13 0
-23 5 -23 11 0 7 14 8 41 4 39 -7 40 -6 30 14 -8 13 -26 23 -51 27 -22 4 -40
11 -40 16 0 5 15 6 33 3 26 -5 34 -3 34 9 0 8 -3 14 -6 14 -6 -1 -53 10 -81
18 -12 4 -12 6 -1 14 33 20 -103 38 -144 20z"/>
<path d="M840 559 c0 -5 5 -7 10 -4 6 3 10 8 10 11 0 2 -4 4 -10 4 -5 0 -10
-5 -10 -11z"/>
<path d="M897 553 c-4 -3 -7 -11 -7 -17 0 -6 5 -5 12 2 6 6 9 14 7 17 -3 3 -9
2 -12 -2z"/>
<path d="M200 534 c-49 -21 -74 -45 -58 -56 7 -4 25 -8 40 -8 18 0 29 -7 33
-20 10 -31 18 -24 47 40 l26 60 -26 0 c-15 -1 -43 -8 -62 -16z m7 -21 c-4 -3
-1 -13 6 -21 10 -13 9 -14 -3 -10 -19 6 -26 38 -9 38 7 0 9 -3 6 -7z"/>
<path d="M856 534 c-4 -9 -4 -19 -1 -22 2 -3 7 3 11 12 4 9 4 19 1 22 -2 3 -7
-3 -11 -12z"/>
<path d="M905 520 c-3 -5 -2 -17 3 -26 8 -14 10 -12 10 9 0 29 -3 33 -13 17z"/>
<path d="M680 495 c0 -8 4 -15 10 -15 5 0 7 7 4 15 -4 8 -8 15 -10 15 -2 0 -4
-7 -4 -15z"/>
<path d="M865 500 c-3 -5 -2 -10 4 -10 5 0 13 5 16 10 3 6 2 10 -4 10 -5 0
-13 -4 -16 -10z"/>
<path d="M711 484 c0 -11 3 -14 6 -6 3 7 2 16 -1 19 -3 4 -6 -2 -5 -13z"/>
<path d="M741 474 c0 -11 3 -14 6 -6 3 7 2 16 -1 19 -3 4 -6 -2 -5 -13z"/>
<path d="M693 446 c8 -17 18 -24 29 -20 18 5 48 -39 48 -70 0 -13 4 -14 28 -4
32 14 57 34 29 25 -13 -5 -17 -2 -15 10 3 16 -63 63 -110 77 -19 6 -20 5 -9
-18z"/>
<path d="M771 454 c0 -11 3 -14 6 -6 3 7 2 16 -1 19 -3 4 -6 -2 -5 -13z"/>
<path d="M151 425 c-21 -36 -61 -144 -61 -165 0 -19 70 35 84 65 19 38 25 127
10 132 -6 2 -21 -13 -33 -32z"/>
<path d="M790 446 c0 -9 5 -16 10 -16 6 0 10 4 10 9 0 6 -4 13 -10 16 -5 3
-10 -1 -10 -9z"/>
<path d="M820 430 c0 -5 5 -10 10 -10 6 0 10 5 10 10 0 6 -4 10 -10 10 -5 0
-10 -4 -10 -10z"/>
<path d="M105 420 c3 -5 11 -10 16 -10 6 0 7 5 4 10 -3 6 -11 10 -16 10 -6 0
-7 -4 -4 -10z"/>
<path d="M85 400 c3 -5 11 -10 16 -10 6 0 7 5 4 10 -3 6 -11 10 -16 10 -6 0
-7 -4 -4 -10z"/>
<path d="M207 383 c-12 -12 -7 -22 8 -17 8 4 15 10 15 15 0 11 -14 12 -23 2z"/>
<path d="M68 373 c7 -3 16 -2 19 1 4 3 -2 6 -13 5 -11 0 -14 -3 -6 -6z"/>
<path d="M55 350 c-3 -5 1 -10 9 -10 9 0 16 5 16 10 0 6 -4 10 -9 10 -6 0 -13
-4 -16 -10z"/>
<path d="M208 343 c7 -3 16 -2 19 1 4 3 -2 6 -13 5 -11 0 -14 -3 -6 -6z"/>
<path d="M805 340 c-3 -6 1 -7 9 -4 18 7 21 14 7 14 -6 0 -13 -4 -16 -10z"/>
<path d="M58 323 c7 -3 16 -2 19 1 4 3 -2 6 -13 5 -11 0 -14 -3 -6 -6z"/>
<path d="M198 313 c7 -3 16 -2 19 1 4 3 -2 6 -13 5 -11 0 -14 -3 -6 -6z"/>
<path d="M170 290 c0 -6 7 -10 15 -10 8 0 15 2 15 4 0 2 -7 6 -15 10 -8 3 -15
1 -15 -4z"/>
<path d="M228 293 c7 -3 16 -2 19 1 4 3 -2 6 -13 5 -11 0 -14 -3 -6 -6z"/>
<path d="M60 270 c-8 -5 -12 -12 -9 -15 4 -3 12 1 19 10 14 17 11 19 -10 5z"/>
<path d="M230 269 c-11 -7 -12 -12 -3 -15 7 -3 9 -12 6 -21 -4 -10 -2 -14 4
-10 8 5 16 58 9 57 0 0 -8 -5 -16 -11z"/>
<path d="M148 263 c7 -3 16 -2 19 1 4 3 -2 6 -13 5 -11 0 -14 -3 -6 -6z"/>
<path d="M180 254 c-23 -27 -50 -37 -66 -23 -10 8 -14 8 -14 0 0 -6 4 -11 10
-11 5 0 7 -6 4 -14 -3 -8 2 -28 11 -46 18 -35 126 -93 196 -105 29 -5 39 -11
39 -26 0 -10 7 -19 15 -19 25 0 79 26 97 47 17 19 16 20 -47 40 -36 12 -65 18
-65 14 0 -15 25 -31 49 -32 23 0 24 -1 6 -8 -35 -14 -88 18 -78 47 4 14 3 15
-6 2 -8 -12 -16 -10 -52 16 -35 25 -46 41 -57 83 -16 54 -22 60 -42 35z"/>
<path d="M260 265 c0 -5 5 -17 10 -25 5 -8 10 -10 10 -5 0 6 -5 17 -10 25 -5
8 -10 11 -10 5z"/>
<path d="M120 250 c0 -6 7 -10 15 -10 8 0 15 2 15 4 0 2 -7 6 -15 10 -8 3 -15
1 -15 -4z"/>
<path d="M60 235 c-11 -13 -10 -14 4 -9 9 3 16 10 16 15 0 13 -6 11 -20 -6z"/>
<path d="M65 209 c-11 -17 1 -21 15 -4 8 9 8 15 2 15 -6 0 -14 -5 -17 -11z"/>
<path d="M250 205 c0 -8 2 -15 4 -15 2 0 6 7 10 15 3 8 1 15 -4 15 -6 0 -10
-7 -10 -15z"/>
<path d="M275 189 c-4 -6 -5 -12 -2 -15 2 -3 7 2 10 11 7 17 1 20 -8 4z"/>
<path d="M80 179 c0 -5 5 -7 10 -4 6 3 10 8 10 11 0 2 -4 4 -10 4 -5 0 -10 -5
-10 -11z"/>
<path d="M45 170 c-8 -13 -1 -24 14 -19 6 3 7 10 2 18 -6 10 -10 10 -16 1z"/>
<path d="M290 164 c0 -8 5 -12 10 -9 6 3 10 10 10 16 0 5 -4 9 -10 9 -5 0 -10
-7 -10 -16z"/>
<path d="M97 163 c-4 -3 -7 -11 -7 -17 0 -6 5 -5 12 2 6 6 9 14 7 17 -3 3 -9
2 -12 -2z"/>
<path d="M310 144 c0 -8 5 -12 10 -9 6 3 10 10 10 16 0 5 -4 9 -10 9 -5 0 -10
-7 -10 -16z"/>
<path d="M111 124 c0 -11 3 -14 6 -6 3 7 2 16 -1 19 -3 4 -6 -2 -5 -13z"/>
<path d="M125 101 c-3 -5 -1 -12 5 -16 5 -3 10 1 10 9 0 18 -6 21 -15 7z"/>
<path d="M150 75 c0 -8 2 -15 4 -15 2 0 6 7 10 15 3 8 1 15 -4 15 -6 0 -10 -7
-10 -15z"/>
<path d="M175 61 c-3 -5 -1 -12 5 -16 5 -3 10 1 10 9 0 18 -6 21 -15 7z"/>
<path d="M200 45 c0 -8 5 -15 10 -15 6 0 10 7 10 15 0 8 -4 15 -10 15 -5 0
-10 -7 -10 -15z"/>
<path d="M236 35 c8 -19 14 -19 14 0 0 8 -4 15 -10 15 -5 0 -7 -7 -4 -15z"/>
<path d="M266 36 c3 -9 11 -16 16 -16 13 0 5 23 -10 28 -7 2 -10 -2 -6 -12z"/>
</g>
</svg>
