<?xml version="1.0" standalone="no"?>
<!DOCTYPE svg PUBLIC "-//W3C//DTD SVG 20010904//EN"
 "http://www.w3.org/TR/2001/REC-SVG-20010904/DTD/svg10.dtd">
<svg version="1.0" xmlns="http://www.w3.org/2000/svg"
 width="441.000000pt" height="441.000000pt" viewBox="0 0 441.000000 441.000000"
 preserveAspectRatio="xMidYMid meet">
<metadata>
Created by potrace 1.14, written by Peter Selinger 2001-2017
</metadata>
<g transform="translate(0.000000,441.000000) scale(0.100000,-0.100000)"
fill="#000000" stroke="none">
<path d="M2034 3714 c-39 -13 -74 -46 -74 -69 0 -29 103 -155 126 -155 10 0 8
9 -6 33 -38 61 -20 83 41 52 24 -13 77 -16 309 -16 l279 0 3 -27 c3 -24 7 -27
43 -26 41 1 135 39 135 55 0 5 -20 6 -44 3 -53 -8 -65 6 -37 45 25 34 19 44
-17 25 -42 -22 -62 -18 -62 11 0 17 -6 25 -17 26 -10 0 -133 1 -273 2 -252 2
-256 2 -311 28 -52 25 -59 26 -95 13z"/>
<path d="M2210 3472 c0 -4 9 -13 20 -20 12 -7 18 -17 15 -22 -10 -17 -44 -11
-54 9 -10 18 -70 34 -95 25 -6 -2 -20 -19 -30 -36 -11 -17 -14 -28 -9 -25 5 3
26 -5 46 -18 20 -14 41 -25 46 -25 15 0 14 -15 -8 -92 l-19 -66 30 10 c24 8
38 7 64 -5 31 -15 37 -15 69 0 28 14 39 14 61 4 15 -6 28 -10 30 -8 3 3 -15
79 -42 174 -12 45 -21 56 -58 78 -43 25 -66 31 -66 17z"/>
<path d="M2046 3343 c-27 -27 -42 -65 -32 -81 9 -15 57 -21 61 -8 9 29 14 116
6 116 -4 0 -20 -12 -35 -27z"/>
<path d="M1750 3293 c-47 -24 -203 -105 -348 -178 l-263 -134 23 -22 c47 -44
106 -62 214 -65 l102 -2 153 104 c107 73 156 101 163 94 8 -8 -17 -37 -82 -98
-51 -48 -92 -90 -92 -94 0 -11 74 -10 104 2 14 5 51 34 83 64 32 31 63 56 70
56 27 0 20 -21 -27 -83 -28 -37 -50 -71 -50 -77 0 -20 69 -40 138 -40 l68 0
18 50 c20 55 26 62 44 51 17 -11 50 -134 41 -157 -3 -11 -41 -65 -82 -121 -71
-95 -74 -102 -61 -122 32 -45 104 -17 148 59 18 30 40 57 50 58 16 4 17 -2 11
-47 l-7 -51 81 0 c87 0 92 4 72 55 -5 11 -6 26 -4 33 10 26 34 10 65 -47 29
-52 38 -60 80 -74 47 -15 49 -14 63 6 8 12 15 24 15 28 0 3 -30 46 -66 95 -97
131 -96 128 -76 208 10 40 24 72 35 77 18 10 18 11 47 -68 12 -33 13 -33 80
-33 73 0 125 14 133 35 3 7 -17 42 -44 79 -47 62 -54 86 -26 86 7 0 35 -23 62
-51 59 -61 97 -79 162 -79 l48 1 -90 83 c-49 46 -92 83 -95 81 -3 -2 -7 5 -7
16 -1 10 4 19 12 19 8 0 78 -44 157 -97 l143 -98 81 -2 c45 -1 101 3 125 8 52
12 130 59 127 76 -2 7 -93 57 -203 112 -110 55 -265 134 -344 176 -80 41 -155
75 -168 75 -14 0 -40 -12 -59 -26 -27 -21 -34 -33 -34 -60 0 -39 -14 -47 -107
-66 -29 -6 -53 -15 -53 -20 0 -6 -14 -8 -35 -4 -23 5 -45 2 -65 -9 -27 -14
-33 -14 -61 1 -21 10 -43 14 -64 10 -19 -4 -36 -2 -39 3 -4 5 -32 15 -64 22
-83 18 -92 24 -92 64 0 28 -6 39 -37 60 -21 14 -49 25 -63 24 -14 0 -63 -21
-110 -46z"/>
<path d="M3363 2705 c-14 -10 -23 -27 -23 -41 0 -23 1 -24 16 -10 8 9 27 19
40 22 16 4 24 12 22 23 -4 22 -29 25 -55 6z"/>
<path d="M3250 2662 c-12 -10 -21 -25 -19 -33 4 -14 10 -13 47 3 36 16 41 22
31 34 -15 19 -32 18 -59 -4z"/>
<path d="M3388 2637 c-39 -19 -45 -35 -28 -67 10 -18 12 -17 41 9 21 20 30 36
27 52 l-3 24 -37 -18z"/>
<path d="M3460 2628 c1 -28 25 -73 64 -122 58 -73 69 -146 34 -216 -41 -81
-125 -112 -201 -74 -53 27 -67 44 -67 84 0 26 -7 45 -24 61 -18 18 -25 39 -29
79 -2 30 -11 73 -20 95 l-15 40 -26 -55 c-15 -32 -26 -73 -26 -98 0 -24 -6
-49 -13 -56 -12 -13 -51 -36 -60 -36 -2 0 -23 43 -47 95 -24 52 -47 95 -52 95
-9 0 -139 -57 -146 -64 -2 -2 8 -26 22 -54 22 -44 29 -50 64 -56 22 -3 45 -13
52 -21 7 -8 20 -15 30 -15 9 0 29 -9 43 -20 14 -11 29 -20 34 -20 5 0 35 -13
66 -30 32 -16 63 -30 69 -30 6 0 26 -14 46 -31 50 -44 97 -61 167 -62 74 0
128 25 179 85 43 50 56 91 56 178 -1 106 -60 203 -152 251 -47 24 -48 24 -48
-3z"/>
<path d="M2848 2618 c-40 -17 -46 -24 -46 -49 1 -15 -4 -35 -11 -42 -12 -16
-5 -47 11 -47 12 0 188 81 188 87 0 2 -5 13 -10 24 -10 18 -12 18 -60 -6 -27
-14 -56 -25 -64 -25 -24 0 -9 25 24 41 18 9 27 18 22 26 -5 8 -20 6 -54 -9z"/>
<path d="M3302 2608 c-7 -9 -24 -19 -37 -22 -26 -7 -33 -37 -16 -65 15 -24 74
38 69 74 -3 25 -5 26 -16 13z"/>
<path d="M3411 2544 c-33 -31 -34 -34 -21 -61 10 -21 14 -24 17 -11 2 9 15 24
29 32 24 16 30 41 16 62 -4 7 -19 0 -41 -22z"/>
<path d="M3301 2503 c-32 -30 -34 -34 -21 -60 9 -20 14 -24 18 -13 3 8 16 23
29 33 12 10 23 26 23 35 0 35 -15 37 -49 5z"/>
<path d="M2121 2499 c-63 -12 -133 -41 -124 -50 4 -4 34 -2 67 6 49 12 135 19
184 16 22 -2 13 -18 -18 -31 -40 -17 -38 -30 12 -62 50 -32 82 -24 72 17 -8
33 7 32 73 -2 52 -27 66 -43 40 -43 -16 0 -107 -92 -107 -108 0 -7 -10 -26
-22 -42 l-22 -30 21 -41 c35 -68 8 -94 -32 -31 -19 30 -23 32 -65 28 -78 -8
-81 -11 -78 -75 3 -50 5 -56 27 -59 13 -2 28 1 34 7 18 18 40 13 34 -8 -3 -13
1 -21 14 -24 11 -3 19 -13 19 -22 0 -13 6 -15 31 -10 17 4 40 16 51 27 16 16
27 18 76 12 62 -7 168 -59 215 -105 15 -15 35 -30 45 -33 10 -4 33 -21 50 -39
l32 -33 -49 -70 c-27 -38 -63 -82 -80 -97 -17 -16 -38 -42 -48 -58 -10 -16
-22 -29 -28 -29 -5 0 -36 -38 -68 -86 -32 -47 -64 -83 -70 -81 -14 5 -12 110
4 209 6 37 8 75 5 86 -3 10 -26 28 -51 40 -63 31 -81 69 -65 138 16 66 5 86
-41 77 -25 -5 -31 -2 -36 15 -5 20 -29 31 -85 38 -54 7 -106 35 -117 62 -12
32 -56 82 -71 82 -7 0 -3 -14 9 -34 12 -18 21 -36 21 -40 0 -13 -26 -5 -41 12
-8 9 -37 37 -63 61 -27 24 -52 57 -57 75 -13 46 -11 92 6 106 16 13 20 47 7
67 -6 9 -21 0 -51 -31 l-43 -43 34 -13 33 -13 -51 -15 c-42 -12 -55 -21 -72
-51 -43 -78 -43 -78 53 -77 50 1 85 -3 85 -9 1 -5 -40 -17 -90 -25 -61 -10
-95 -20 -100 -31 -13 -23 -24 -119 -14 -119 5 0 50 7 99 15 116 19 185 20 185
1 0 -9 -21 -15 -72 -19 -40 -3 -106 -13 -145 -22 -72 -16 -73 -17 -73 -48 0
-18 3 -48 6 -68 l6 -35 67 12 c89 18 224 18 219 2 -3 -8 -34 -15 -84 -19 -43
-3 -104 -12 -135 -19 l-57 -13 18 -52 c30 -87 37 -94 84 -83 62 14 208 15 213
2 2 -8 -20 -14 -64 -18 -87 -9 -163 -26 -163 -37 0 -5 26 -35 58 -68 l57 -60
73 11 c74 10 122 5 122 -12 0 -5 -21 -11 -47 -15 -27 -3 -61 -9 -78 -14 -29
-7 -27 -9 55 -49 161 -78 320 -90 486 -38 81 26 173 75 142 76 -38 0 -118 22
-118 32 0 7 30 9 91 6 101 -6 114 -1 179 82 l30 38 -57 12 c-82 16 -93 20 -93
32 0 8 28 9 91 5 l90 -7 24 53 c35 78 35 79 -14 91 -25 7 -47 18 -49 25 -4 11
7 13 51 9 62 -5 56 -12 73 84 7 45 0 49 -119 69 -55 9 -77 17 -77 27 0 15 48
14 161 -4 l42 -7 -7 49 c-12 83 -10 81 -105 103 -49 12 -100 21 -113 21 -40 0
-88 12 -88 21 0 14 137 10 210 -6 36 -7 66 -12 68 -10 2 2 -8 30 -23 63 l-27
60 -67 17 c-37 9 -99 19 -137 23 -38 4 -68 12 -67 17 4 15 89 18 161 5 36 -6
66 -9 69 -7 2 3 -18 28 -44 56 -52 56 -91 71 -215 86 -43 5 -58 10 -58 22 0
13 11 15 70 11 83 -6 76 3 -33 46 -111 44 -252 58 -366 35z"/>
<path d="M3460 2490 c0 -8 -9 -21 -20 -28 -21 -13 -28 -66 -10 -77 6 -3 10 -2
10 4 0 5 14 18 30 28 35 20 37 32 10 64 -14 17 -19 20 -20 9z"/>
<path d="M1529 2446 c-91 -16 -192 -68 -258 -134 l-56 -55 54 -24 c46 -20 58
-22 88 -12 55 18 79 6 98 -48 18 -54 50 -98 64 -89 5 4 15 23 22 44 23 70 89
213 124 268 19 30 35 57 35 59 0 9 -103 3 -171 -9z m-82 -94 c-32 -35 -10 -74
36 -66 18 2 18 2 1 -17 -22 -25 -59 -24 -84 1 -23 23 -24 33 -9 63 15 27 28
37 53 37 18 0 18 -1 3 -18z"/>
<path d="M3340 2426 c-23 -31 -25 -41 -21 -77 2 -16 71 42 71 60 0 10 -6 25
-12 34 -12 14 -16 13 -38 -17z"/>
<path d="M3483 2384 c-18 -18 -30 -40 -28 -50 2 -11 4 -23 4 -29 1 -6 4 -5 9
1 4 6 22 19 40 28 34 18 38 29 19 62 -12 20 -13 20 -44 -12z"/>
<path d="M3383 2342 c-31 -26 -37 -39 -34 -72 1 -10 4 -11 9 -4 4 6 21 15 37
21 31 10 44 40 28 67 -7 12 -14 10 -40 -12z"/>
<path d="M2740 2337 c0 -14 19 -37 32 -37 16 0 7 30 -12 40 -15 8 -20 8 -20
-3z"/>
<path d="M2810 2305 c7 -31 32 -64 50 -65 3 0 6 21 5 48 0 45 -1 47 -32 50
-31 3 -31 3 -23 -33z"/>
<path d="M2895 2309 c4 -6 8 -24 9 -41 2 -26 27 -58 45 -58 3 0 6 21 6 47 -1
36 -5 48 -20 54 -29 11 -47 10 -40 -2z"/>
<path d="M3500 2290 c-11 -11 -20 -27 -20 -37 0 -14 2 -14 21 3 11 10 25 27
30 36 13 25 -6 23 -31 -2z"/>
<path d="M2990 2235 c0 -33 5 -47 19 -54 16 -9 19 -6 24 32 5 32 2 45 -10 55
-27 20 -33 14 -33 -33z"/>
<path d="M3402 2255 c-39 -13 -32 -25 15 -25 22 0 33 5 33 14 0 21 -11 24 -48
11z"/>
<path d="M3068 2203 c-6 -45 -2 -59 19 -67 20 -8 19 -9 27 36 5 26 2 40 -9 52
-25 24 -32 20 -37 -21z"/>
<path d="M2830 2217 c0 -2 11 -25 24 -53 13 -27 26 -59 30 -71 l7 -23 39 20
c22 11 44 20 50 20 15 0 109 -205 104 -227 -2 -10 0 -24 4 -31 7 -11 30 -4
106 32 90 42 96 47 86 66 -10 19 -13 19 -47 5 -43 -18 -43 -18 -43 -1 0 7 9
20 21 27 19 13 19 15 4 47 -9 17 -23 32 -31 32 -16 0 -180 84 -204 105 -8 7
-26 16 -40 20 -14 4 -29 11 -35 15 -10 7 -75 22 -75 17z"/>
<path d="M3147 2158 c-6 -43 8 -68 39 -68 16 0 12 73 -5 94 -21 25 -28 19 -34
-26z"/>
<path d="M1322 2165 c-35 -44 -108 -196 -146 -302 -36 -99 -76 -243 -76 -270
0 -25 14 -18 141 74 82 59 139 130 139 173 0 10 11 75 25 144 18 89 23 136 17
163 -7 35 -11 38 -44 41 -29 2 -40 -2 -56 -23z"/>
<path d="M3230 2121 c5 -43 7 -46 36 -49 29 -3 31 -1 27 22 -3 14 -19 36 -37
50 l-32 24 6 -47z"/>
<path d="M1227 2139 c-18 -10 -18 -12 -1 -30 18 -20 18 -20 31 3 7 13 12 26
13 31 0 10 -22 8 -43 -4z"/>
<path d="M1139 2090 c-19 -15 -20 -19 -8 -20 9 0 22 -7 29 -15 13 -16 55 -21
63 -7 6 9 -38 62 -51 62 -6 0 -20 -9 -33 -20z"/>
<path d="M3326 2086 c7 -18 59 -22 69 -6 3 6 -2 10 -12 10 -10 0 -28 3 -41 6
-18 5 -21 3 -16 -10z"/>
<path d="M1445 2044 c-8 -43 -4 -48 20 -30 13 9 16 20 11 39 -9 38 -23 33 -31
-9z"/>
<path d="M1076 2031 c-16 -18 -16 -19 15 -30 44 -15 64 -14 80 6 8 9 9 14 3
10 -5 -3 -23 3 -40 14 -36 23 -37 23 -58 0z"/>
<path d="M1460 1974 c-25 -14 -38 -36 -39 -68 -1 -17 1 -18 17 -4 9 8 30 18
45 22 23 6 28 11 25 33 -4 32 -15 36 -48 17z"/>
<path d="M1025 1958 c-15 -23 -15 -23 27 -30 33 -6 46 -4 60 9 18 16 17 18
-24 30 -24 7 -44 13 -45 13 -1 0 -9 -10 -18 -22z"/>
<path d="M1003 1888 c-27 -35 -22 -43 23 -40 37 3 75 25 63 36 -14 12 -77 15
-86 4z"/>
<path d="M1486 1891 c-4 -6 -15 -11 -25 -11 -18 0 -51 -29 -51 -46 0 -5 20 -8
44 -6 35 3 45 8 50 25 6 25 -8 55 -18 38z"/>
<path d="M3208 1857 c-49 -23 -69 -55 -25 -41 43 13 77 35 77 49 0 8 -1 15 -2
14 -2 0 -24 -11 -50 -22z"/>
<path d="M1030 1812 c-37 -4 -60 -17 -60 -36 0 -16 76 -8 91 10 17 21 7 29
-31 26z"/>
<path d="M1542 1808 c-14 -14 -16 -38 -3 -38 5 0 16 -3 25 -6 13 -5 16 1 16
25 0 32 -16 41 -38 19z"/>
<path d="M1390 1778 c-29 -27 -25 -33 25 -36 41 -2 46 0 55 24 6 14 10 26 10
28 0 1 -16 2 -35 2 -21 0 -44 -8 -55 -18z"/>
<path d="M1025 1733 c-37 -6 -55 -20 -55 -43 0 -16 4 -17 33 -8 17 6 37 12 43
14 6 1 14 12 17 23 3 12 2 20 -1 20 -4 -1 -20 -4 -37 -6z"/>
<path d="M1502 1728 c-7 -7 -12 -22 -12 -34 0 -20 3 -21 36 -14 34 8 73 35 63
43 -13 12 -76 16 -87 5z"/>
<path d="M1330 1703 l-22 -16 38 -13 c53 -19 59 -18 72 11 7 14 12 27 12 28 0
11 -82 2 -100 -10z"/>
<path d="M1050 1662 c0 -4 -15 -12 -32 -17 -25 -8 -34 -16 -36 -37 l-3 -27 40
20 c32 15 41 25 41 44 0 14 -2 25 -5 25 -3 0 -5 -4 -5 -8z"/>
<path d="M1546 1654 c-11 -8 -28 -14 -37 -14 -20 0 -27 -15 -21 -47 4 -22 22
-33 22 -13 0 6 6 10 13 10 21 0 49 36 45 59 -3 18 -5 18 -22 5z"/>
<path d="M1598 1640 c-3 -17 -1 -33 4 -36 4 -3 8 -14 8 -25 0 -26 29 -69 46
-69 18 0 19 -7 -20 83 -31 72 -34 75 -38 47z"/>
<path d="M1255 1643 l-30 -17 32 -8 c18 -5 35 -13 38 -18 10 -15 22 -12 45 12
l20 22 -38 13 c-20 7 -37 13 -37 12 0 0 -13 -7 -30 -16z"/>
<path d="M1375 1610 c-4 -12 -23 -31 -43 -44 -20 -13 -46 -33 -56 -45 -11 -11
-27 -21 -36 -21 -9 0 -27 -11 -40 -25 -13 -14 -29 -25 -37 -25 -7 0 -13 -5
-13 -12 0 -12 34 -90 51 -118 5 -8 16 -28 25 -45 26 -47 59 -73 154 -121 159
-80 414 -164 499 -164 20 0 22 -3 16 -27 -20 -84 -27 -76 56 -71 96 5 182 44
267 122 34 32 62 62 62 67 0 5 -10 8 -22 7 -51 -2 -194 42 -341 106 l-39 17 7
-23 c28 -90 29 -91 160 -104 36 -4 65 -10 65 -14 0 -15 -36 -22 -131 -27 l-96
-6 -7 39 c-6 37 -12 42 -138 119 -198 121 -260 184 -229 234 6 10 5 22 -4 35
-8 11 -24 53 -36 93 -21 71 -23 73 -55 73 -24 0 -34 -5 -39 -20z"/>
<path d="M1174 1585 c-11 -8 -14 -14 -6 -15 7 0 27 -10 43 -22 l31 -23 19 24
20 24 -32 14 c-40 17 -51 16 -75 -2z"/>
<path d="M1061 1584 c-1 -6 -14 -17 -31 -24 -25 -10 -30 -18 -30 -46 l0 -34
20 20 c11 11 24 20 30 20 16 0 28 34 19 55 -4 11 -8 15 -8 9z"/>
<path d="M1542 1560 c-27 -22 -32 -32 -26 -54 8 -32 7 -32 37 -2 29 29 36 46
28 68 -5 14 -10 12 -39 -12z"/>
<path d="M1110 1546 c0 -1 5 -17 11 -35 12 -34 33 -40 61 -15 17 16 16 18 -17
35 -32 18 -55 24 -55 15z"/>
<path d="M1582 1480 c-26 -34 -28 -53 -8 -69 12 -10 18 -7 30 18 32 60 14 100
-22 51z"/>
<path d="M1053 1478 c-32 -19 -40 -41 -25 -65 5 -9 17 -3 40 18 51 48 41 80
-15 47z"/>
<path d="M1643 1448 c2 -7 -2 -25 -10 -41 -10 -21 -11 -32 -2 -48 10 -20 12
-20 34 17 25 42 24 53 -6 72 -18 11 -20 11 -16 0z"/>
<path d="M1088 1399 c-29 -28 -34 -45 -19 -68 7 -11 14 -8 35 15 24 28 34 69
19 76 -5 2 -20 -8 -35 -23z"/>
<path d="M1692 1359 c-9 -30 -9 -45 -1 -60 11 -21 11 -20 30 10 24 39 24 54 1
74 -16 15 -18 13 -30 -24z"/>
<path d="M967 1339 c-21 -23 -36 -44 -34 -46 2 -2 29 -1 59 3 l55 6 -15 39
c-8 22 -18 39 -21 39 -3 0 -23 -19 -44 -41z"/>
<path d="M1127 1320 c-18 -18 -27 -38 -25 -52 4 -25 28 -37 28 -14 0 9 4 16
10 16 16 0 30 37 22 59 -7 20 -8 20 -35 -9z"/>
<path d="M1748 1292 c-16 -26 -15 -72 1 -72 12 0 51 48 51 62 0 14 -19 38 -30
38 -3 0 -13 -13 -22 -28z"/>
<path d="M1190 1273 c0 -7 -11 -24 -25 -39 -30 -33 -30 -36 -5 -59 17 -15 20
-16 20 -3 0 9 7 21 15 28 17 14 19 48 5 70 -6 9 -10 10 -10 3z"/>
<path d="M1796 1221 c-17 -18 -17 -20 3 -30 29 -16 41 -14 41 8 0 32 -24 44
-44 22z"/>
<path d="M1222 1170 c-25 -31 -23 -58 3 -80 12 -10 15 -9 15 4 0 9 7 27 16 41
12 18 13 28 4 44 -6 12 -12 21 -13 20 -1 0 -12 -13 -25 -29z"/>
<path d="M1281 1095 c-11 -36 -11 -48 -1 -60 18 -22 25 -19 39 20 11 31 10 39
-3 60 -9 14 -18 25 -19 25 -1 0 -9 -20 -16 -45z"/>
<path d="M1352 1040 c-16 -53 -16 -55 12 -68 22 -10 24 -8 30 31 5 32 3 44
-11 59 -18 17 -19 16 -31 -22z"/>
<path d="M1432 993 c-2 -47 8 -63 39 -63 23 0 10 78 -16 96 -20 13 -21 11 -23
-33z"/>
<path d="M1523 968 c2 -37 6 -44 29 -52 15 -5 30 -8 33 -5 10 11 -17 79 -35
89 -28 15 -29 14 -27 -32z"/>
<path d="M1605 984 c8 -16 15 -37 15 -46 0 -13 8 -18 28 -18 16 0 31 3 35 6 9
9 -33 74 -48 74 -7 0 -20 3 -29 6 -14 6 -14 3 -1 -22z"/>
<path d="M1707 973 c17 -26 45 -30 62 -10 8 11 2 16 -33 24 l-44 10 15 -24z"/>
</g>
</svg>
